<svg width="28" height="28" viewBox="0 0 28 28" fill="none" xmlns="http://www.w3.org/2000/svg">
<path d="M14.9333 22.8667C15.229 23.0886 15.5733 23.237 15.9377 23.2996C16.302 23.3623 16.6761 23.3375 17.029 23.2273C17.3819 23.117 17.7035 22.9245 17.9674 22.6656C18.2313 22.4066 18.4299 22.0887 18.5468 21.7379C18.6638 21.3872 18.6957 21.0137 18.6399 20.6482C18.5841 20.2827 18.4423 19.9357 18.2261 19.6358C18.01 19.3358 17.7256 19.0916 17.3965 18.9231C17.0674 18.7546 16.703 18.6667 16.3333 18.6667H2.33325" stroke="white" stroke-width="2.33333" stroke-linecap="round" stroke-linejoin="round"/>
<path d="M20.4166 9.33342C20.7149 8.93568 21.1099 8.6208 21.5641 8.41868C22.0183 8.21655 22.5167 8.13389 23.0119 8.17853C23.507 8.22318 23.9825 8.39366 24.3933 8.67378C24.804 8.9539 25.1363 9.33436 25.3587 9.77904C25.581 10.2237 25.686 10.7179 25.6636 11.2145C25.6413 11.7112 25.4924 12.1939 25.231 12.6168C24.9696 13.0397 24.6045 13.3888 24.1702 13.6309C23.736 13.873 23.2471 14.0001 22.7499 14.0001H2.33325" stroke="white" stroke-width="2.33333" stroke-linecap="round" stroke-linejoin="round"/>
<path d="M11.4333 5.13341C11.729 4.91158 12.0733 4.76321 12.4377 4.70053C12.802 4.63784 13.1761 4.66264 13.529 4.77288C13.8819 4.88312 14.2035 5.07564 14.4674 5.33458C14.7313 5.59352 14.9299 5.91147 15.0468 6.26222C15.1638 6.61297 15.1957 6.98648 15.1399 7.35197C15.0841 7.71746 14.9423 8.06447 14.7261 8.36441C14.51 8.66434 14.2256 8.90861 13.8965 9.07708C13.5674 9.24556 13.203 9.33341 12.8333 9.33341H2.33325" stroke="white" stroke-width="2.33333" stroke-linecap="round" stroke-linejoin="round"/>
</svg>
