<svg width="470" height="153" viewBox="0 0 470 153" fill="none" xmlns="http://www.w3.org/2000/svg">
<path d="M108.013 132.668C107.857 132.92 107.519 132.971 107.284 132.789C102.924 129.408 95.5016 126.202 89.3225 122.047C89.0306 121.851 89.0194 121.426 89.3031 121.219C92.4709 118.897 107.537 107.012 110.219 89.135C112.191 75.9889 110.274 65.0031 108.729 59.0174C108.578 58.4319 109.458 58.0358 109.738 58.5719C113.257 65.3177 119.219 78.9811 119.219 94.1349C119.219 113.582 109.81 129.756 108.013 132.668Z" fill="white"/>
<path d="M143.329 25.2042C143.626 25.2087 143.843 25.4735 143.807 25.7681C143.137 31.2449 144.185 39.2621 143.782 46.6971C143.763 47.0483 143.404 47.2753 143.081 47.1381C139.464 45.6066 121.539 38.7551 104.812 45.6096C92.5115 50.65 84.0582 57.9234 79.7089 62.3166C79.2835 62.7464 78.4923 62.193 78.8094 61.6782C82.8003 55.2002 91.4813 43.0814 104.496 35.3189C121.198 25.3575 139.908 25.1525 143.329 25.2042Z" fill="white"/>
<path d="M82.4021 20.062C82.5855 19.8185 82.9371 19.8109 83.1545 20.0246C85.0987 21.9356 88.3531 23.9196 91.048 26.2802C91.3049 26.5052 91.2637 26.9159 90.9737 27.0961C88.7452 28.4812 80.847 33.9241 78.3104 42.8945C76.7751 48.3237 76.5611 53.168 76.7117 56.5775C76.7384 57.182 75.7754 57.412 75.6088 56.8303C74.4247 52.6961 73.2053 46.3853 74.1041 39.7531C75.4474 29.8401 80.9536 21.9853 82.4021 20.062Z" fill="white"/>
<path d="M58.2271 104.624C57.9246 104.587 57.7422 104.286 57.8186 103.991C58.5015 101.352 58.5925 97.5413 59.2894 94.0271C59.3558 93.6922 59.732 93.5225 60.0331 93.6836C62.3469 94.9209 71.0097 99.0395 80.0466 96.7511C85.516 95.3661 89.8183 93.1293 92.6957 91.2941C93.2059 90.9688 93.8866 91.6877 93.4661 92.1228C90.4779 95.2154 85.6222 99.4269 79.4292 101.965C70.1726 105.758 60.6171 104.917 58.2271 104.624Z" fill="#E5E7EB"/>
<path d="M147.472 76.2913C147.639 76.5466 147.526 76.8798 147.251 77.0113C144.791 78.1882 141.816 80.5723 138.678 82.302C138.379 82.4668 138.006 82.2881 137.936 81.954C137.394 79.3864 134.969 70.1051 127.401 64.6631C122.82 61.3692 118.338 59.5171 115.081 58.4969C114.504 58.3161 114.615 57.3323 115.219 57.3738C119.51 57.6691 125.859 58.673 131.789 61.7784C140.651 66.4197 146.158 74.274 147.472 76.2913Z" fill="white"/>
<path d="M32.2309 48.8007C32.088 48.5405 32.2108 48.221 32.4847 48.1067C37.5764 45.9808 44.0261 41.1048 50.6877 37.7782C51.0023 37.6211 51.3769 37.8205 51.4179 38.1698C51.8752 42.0704 54.7847 61.0381 69.0147 72.187C79.4787 80.3853 89.981 84.1355 95.9503 85.7431C96.5341 85.9003 96.4445 86.8617 95.8402 86.8406C88.2362 86.5756 73.4099 85.0237 60.2268 77.5508C43.3092 67.9609 33.8781 51.8002 32.2309 48.8007Z" fill="#E5E7EB"/>
<circle cx="95.2186" cy="70.635" r="7.5" fill="white"/>
<path d="M201.343 97H189.679L176.125 60.982H186.655L195.511 86.956L204.421 60.982H214.951L201.343 97ZM247.797 97H221.391V60.982H247.797V69.082H230.679V74.698H247.419V82.798H230.679V88.9H247.797V97ZM290.45 97H281.486L266.258 76.156V97H256.97V60.982H266.528L281.108 80.8V60.982H290.45V97ZM318.056 97H308.768V69.082H298.67V60.982H328.1V69.082H318.056V97ZM367.971 97H357.441L355.659 91.816H341.457L339.675 97H329.145L342.699 60.982H354.363L367.971 97ZM353.121 83.716L348.531 70.162L343.941 83.716H353.121ZM405.137 97H394.499L388.451 84.904H383.699V97H374.411V60.982H392.447C396.335 60.982 399.395 62.116 401.627 64.384C403.859 66.652 404.975 69.514 404.975 72.97C404.975 75.85 404.255 78.208 402.815 80.044C401.411 81.844 399.737 83.086 397.793 83.77L405.137 97ZM391.043 76.804C392.303 76.804 393.365 76.462 394.229 75.778C395.093 75.094 395.525 74.14 395.525 72.916C395.525 71.728 395.093 70.792 394.229 70.108C393.365 69.424 392.303 69.082 391.043 69.082H383.699V76.804H391.043ZM448.885 97H438.355L436.573 91.816H422.371L420.589 97H410.059L423.613 60.982H435.277L448.885 97ZM434.035 83.716L429.445 70.162L424.855 83.716H434.035Z" fill="white"/>
</svg>
