<svg width="230" height="34" viewBox="0 0 230 34" fill="none" xmlns="http://www.w3.org/2000/svg">
<path d="M22.9324 33.5129C22.7834 33.7696 22.4461 33.8211 22.203 33.6508C20.974 32.7896 19.1492 31.948 17.5242 30.9185C17.2271 30.7303 17.2214 30.298 17.4968 30.0793C18.9507 28.9249 22.6753 25.544 23.4002 20.7115C23.7115 18.6358 23.7015 16.7386 23.5544 15.1428C23.4989 14.5407 24.4873 14.1914 24.6946 14.7594C25.4527 16.8366 26.1151 19.4454 26.1151 22.2198C26.1151 27.56 23.7632 32.0821 22.9324 33.5129Z" fill="#215784"/>
<path d="M33.0034 1.42616C33.3002 1.42268 33.5172 1.68603 33.4954 1.98201C33.3854 3.47866 33.5974 5.477 33.5456 7.39991C33.5361 7.7515 33.1677 7.97792 32.8388 7.85339C31.1026 7.19606 26.2911 5.72905 21.7695 7.58189C19.8272 8.37776 18.203 9.35819 16.9078 10.302C16.4191 10.6581 15.6128 9.98812 15.9945 9.51911C17.3901 7.80401 19.2914 5.89878 21.6741 4.47761C26.2605 1.74213 31.349 1.44558 33.0034 1.42616Z" fill="#6596C0"/>
<path d="M14.7726 0.203929C14.9463 -0.0465363 15.3028 -0.0620908 15.5359 0.134187C16.0201 0.541738 16.6533 0.966836 17.2454 1.44037C17.5121 1.65363 17.4702 2.06919 17.1909 2.26562C16.2476 2.92897 14.4262 4.46089 13.7753 6.76288C13.722 6.95126 13.674 7.1373 13.6308 7.32063C13.4922 7.90959 12.4234 8.02644 12.414 7.42145C12.406 6.90088 12.4323 6.36167 12.5064 5.81524C12.8571 3.22741 14.1482 1.10457 14.7726 0.203929Z" fill="#6596C0"/>
<path d="M8.11996 25.4248C7.81622 25.3996 7.62451 25.0987 7.67791 24.7986C7.78879 24.1755 7.84033 23.4146 7.95436 22.6651C8.00572 22.3275 8.38655 22.156 8.69631 22.2997C9.74241 22.7848 11.9798 23.5963 14.2989 23.009C14.4886 22.961 14.6738 22.9095 14.8541 22.8552C15.4335 22.6809 16.0691 23.548 15.5498 23.8586C15.103 24.1259 14.6229 24.3726 14.1126 24.5817C11.6961 25.5719 9.21215 25.5152 8.11996 25.4248Z" fill="#455F74"/>
<path d="M34.4104 16.5024C34.5867 16.751 34.4798 17.0914 34.2158 17.2437C33.6675 17.56 33.0518 18.0107 32.4046 18.4061C32.1132 18.5842 31.7368 18.4031 31.6473 18.0735C31.3453 16.9605 30.5261 14.7259 28.5838 13.3294C28.4248 13.215 28.2661 13.1064 28.1084 13.0033C27.6019 12.6722 27.8563 11.6274 28.4283 11.8248C28.9206 11.9946 29.4188 12.2032 29.9075 12.4592C32.221 13.6708 33.7766 15.6084 34.4104 16.5024Z" fill="#215784"/>
<path d="M0.0649303 8.87915C-0.0848592 8.62294 0.0366912 8.30406 0.304714 8.1766C1.65997 7.53213 3.29199 6.3596 4.98892 5.45366C5.29918 5.28802 5.67816 5.49621 5.73258 5.84369C6.01986 7.67775 7.12435 12.5853 10.9709 15.5989C12.6231 16.8934 14.2785 17.8203 15.7393 18.4793C16.2905 18.7279 16.1069 19.76 15.5106 19.6602C13.3297 19.2954 10.7335 18.5851 8.31991 17.217C3.67422 14.5835 0.899986 10.3075 0.0649303 8.87915Z" fill="#455F74"/>
<path d="M21.1377 15.1309C21.1377 16.3804 20.1248 17.3933 18.8752 17.3933C17.6257 17.3933 16.6128 16.3804 16.6128 15.1309C16.6128 13.8814 17.6257 12.8684 18.8752 12.8684C20.1248 12.8684 21.1377 13.8814 21.1377 15.1309Z" fill="#215784"/>
<path d="M61.3066 26.9007H54.8266L47.2966 6.89073H53.1466L58.0666 21.3207L63.0166 6.89073H68.8666L61.3066 26.9007Z" fill="#215784"/>
<path d="M92.2146 26.9007H77.5446V6.89073H92.2146V11.3907H82.7046V14.5107H92.0046V19.0107H82.7046V22.4007H92.2146V26.9007Z" fill="#215784"/>
<path d="M121.011 26.9007H116.031L107.571 15.3207V26.9007H102.411V6.89073H107.721L115.821 17.9007V6.89073H121.011V26.9007Z" fill="#215784"/>
<path d="M141.448 26.9007H136.288V11.3907H130.678V6.89073H147.028V11.3907H141.448V26.9007Z" fill="#215784"/>
<path d="M174.278 26.9007H168.428L167.438 24.0207H159.548L158.558 26.9007H152.708L160.238 6.89073H166.718L174.278 26.9007ZM166.028 19.5207L163.478 11.9907L160.928 19.5207H166.028Z" fill="#215784"/>
<path d="M200.026 26.9007H194.116L190.756 20.1807H188.116V26.9007H182.956V6.89073H192.976C195.136 6.89073 196.836 7.52073 198.076 8.78073C199.316 10.0407 199.936 11.6307 199.936 13.5507C199.936 15.1507 199.536 16.4607 198.736 17.4807C197.956 18.4807 197.026 19.1707 195.946 19.5507L200.026 26.9007ZM192.196 15.6807C192.896 15.6807 193.486 15.4907 193.966 15.1107C194.446 14.7307 194.686 14.2007 194.686 13.5207C194.686 12.8607 194.446 12.3407 193.966 11.9607C193.486 11.5807 192.896 11.3907 192.196 11.3907H188.116V15.6807H192.196Z" fill="#215784"/>
<path d="M229.43 26.9007H223.58L222.59 24.0207H214.7L213.71 26.9007H207.86L215.39 6.89073H221.87L229.43 26.9007ZM221.18 19.5207L218.63 11.9907L216.08 19.5207H221.18Z" fill="#215784"/>
</svg>
